<svg width="36" height="36" viewBox="0 0 36 36" fill="none" xmlns="http://www.w3.org/2000/svg">
<path d="M25.5 3H10.5C6.35786 3 3 6.35786 3 10.5V25.5C3 29.6421 6.35786 33 10.5 33H25.5C29.6421 33 33 29.6421 33 25.5V10.5C33 6.35786 29.6421 3 25.5 3Z" stroke="#FFFAF1" stroke-width="2" stroke-linecap="round" stroke-linejoin="round"/>
<path d="M23.9996 17.0551C24.1847 18.3035 23.9714 19.5784 23.3902 20.6986C22.8089 21.8188 21.8893 22.7272 20.762 23.2946C19.6347 23.862 18.3572 24.0595 17.1112 23.859C15.8652 23.6585 14.7142 23.0702 13.8218 22.1778C12.9294 21.2854 12.3412 20.1344 12.1407 18.8884C11.9402 17.6424 12.1377 16.3649 12.7051 15.2376C13.2724 14.1104 14.1808 13.1907 15.301 12.6094C16.4212 12.0282 17.6962 11.815 18.9446 12.0001C20.2179 12.1889 21.3968 12.7823 22.3071 13.6925C23.2174 14.6028 23.8107 15.7817 23.9996 17.0551Z" stroke="#FFFAF1" stroke-width="2" stroke-linecap="round" stroke-linejoin="round"/>
<path d="M26.25 9.75H26.265" stroke="#FFFAF1" stroke-width="2" stroke-linecap="round" stroke-linejoin="round"/>
</svg>
