<svg width="20" height="22" viewBox="0 0 20 22" fill="none" xmlns="http://www.w3.org/2000/svg">
<path d="M19 8.99862C19 15.2976 10 20.6968 10 20.6968C10 20.6968 1 15.2976 1 8.99862C1 6.8507 1.94821 4.79076 3.63604 3.27196C5.32387 1.75316 7.61305 0.899902 10 0.899902C12.3869 0.899902 14.6761 1.75316 16.364 3.27196C18.0518 4.79076 19 6.8507 19 8.99862Z" stroke="#29524A" stroke-width="2" stroke-linecap="round" stroke-linejoin="round"/>
<path d="M10 11.6982C11.6569 11.6982 13 10.4895 13 8.99858C13 7.50765 11.6569 6.29901 10 6.29901C8.34315 6.29901 7 7.50765 7 8.99858C7 10.4895 8.34315 11.6982 10 11.6982Z" stroke="#29524A" stroke-width="2" stroke-linecap="round" stroke-linejoin="round"/>
</svg>
