<svg width="154" height="39" viewBox="0 0 154 39" fill="none" xmlns="http://www.w3.org/2000/svg">
<g clip-path="url(#clip0)">
<path fill-rule="evenodd" clip-rule="evenodd" d="M102.72 34.4424C130.951 34.4424 154 34.5382 154 34.698C154 34.8258 130.951 34.9536 102.72 34.9536C74.4885 34.9536 51.4393 34.8577 51.4393 34.698C51.4393 34.5702 74.4885 34.4424 102.72 34.4424ZM102.72 28.3718C130.951 28.3718 154 28.4677 154 28.6274C154 28.7552 130.951 28.883 102.72 28.883C74.4885 28.883 51.4393 28.7872 51.4393 28.6274C51.4393 28.4996 74.4885 28.3718 102.72 28.3718Z" fill="#F53E4B"/>
<path d="M142.014 14.4415C143.413 14.4415 144.462 14.1859 145.194 13.6747C145.925 13.1635 146.306 12.3009 146.306 11.1187C146.306 9.07391 144.844 8.0515 141.919 8.0515H139.821V14.4096H142.014V14.4415ZM141.951 4.79258C145.225 4.79258 147.801 5.33573 149.613 6.39009C151.425 7.44445 152.347 9.04196 152.347 11.1187C152.347 13.3233 151.457 14.9527 149.676 16.071C147.896 17.1893 145.48 17.7324 142.491 17.7324H139.789V24.2183H133.876V4.79258H141.951ZM120.078 16.742H125.324L122.717 8.14735L120.078 16.742ZM127.645 24.2503L126.341 20.0648H119.061L117.789 24.2503H111.653L119.22 4.79258H126.373L133.908 24.2503H127.645ZM100.621 24.2503V4.79258H115.5L114.896 8.08345H106.535V13.2594H113.815V16.5503H106.535V24.2822H100.621V24.2503ZM95.026 1.50171C96.0116 1.50171 96.8064 1.72536 97.4422 2.20461C98.0781 2.68387 98.396 3.29092 98.396 4.02578C98.396 4.76063 98.0781 5.36768 97.4422 5.84694C96.8064 6.32619 96.0116 6.54984 95.026 6.54984C94.0405 6.54984 93.2457 6.32619 92.6098 5.84694C91.974 5.36768 91.6879 4.76063 91.6879 4.02578C91.6879 3.29092 92.0058 2.68387 92.6098 2.20461C93.2457 1.72536 94.0405 1.50171 95.026 1.50171ZM97.9191 9.36146V24.2822H92.2283V9.36146H97.9191ZM84.5029 8.88221C86.1561 8.88221 87.4596 9.26561 88.3815 10.0644C89.3035 10.8631 89.7804 11.9494 89.7804 13.3872V24.2822H84.0896V14.122C84.0896 13.3872 83.9307 12.844 83.6445 12.5565C83.3584 12.2689 82.8815 12.1092 82.3093 12.1092C81.1648 12.1092 80.052 12.7482 79.0029 14.0581V24.2503H73.3122V9.36146H78.2717L78.6532 11.1187C79.4798 10.3839 80.3382 9.80876 81.2919 9.42536C82.2775 9.04196 83.3266 8.88221 84.5029 8.88221ZM70.9596 17.7963C70.9596 19.1382 70.5781 20.3204 69.8468 21.3747C69.1156 22.4291 68.0029 23.2598 66.5405 23.8349C65.0781 24.442 63.2977 24.7295 61.1677 24.7295C57.9885 24.7295 55.5723 24.0905 53.9191 22.8444C52.2659 21.5984 51.4393 19.905 51.4393 17.7963V4.79258H57.3526V17.6046C57.3526 18.8507 57.6705 19.7772 58.2746 20.3843C58.8786 20.9913 59.8642 21.3108 61.1677 21.3108C62.5029 21.3108 63.4885 20.9913 64.0925 20.3843C64.6966 19.7772 65.0145 18.8507 65.0145 17.6046V4.79258H70.9278V17.7963H70.9596Z" fill="black"/>
<path d="M57.1937 33.5159C57.6706 33.5159 58.0839 33.3561 58.4018 33.0366L58.2429 32.8769C57.9567 33.1644 57.607 33.2922 57.1937 33.2922C56.3354 33.2922 55.6995 32.6532 55.6995 31.8225C55.6995 30.9599 56.3354 30.3528 57.1937 30.3528C57.5752 30.3528 57.925 30.4806 58.2429 30.7682L58.4018 30.6084C58.1157 30.2889 57.6706 30.1292 57.1937 30.1292C56.2082 30.1292 55.4452 30.864 55.4452 31.8225C55.4452 32.781 56.2082 33.5159 57.1937 33.5159Z" fill="#070707"/>
<path d="M126.246 32.1738H125.292V30.3527H126.246C126.977 30.3527 127.358 30.6722 127.358 31.2792C127.327 31.8543 126.945 32.1738 126.246 32.1738ZM126.246 30.129H125.038V33.4838H125.292V32.3975H126.246C127.104 32.3975 127.613 31.9821 127.613 31.2792C127.581 30.5444 127.072 30.129 126.246 30.129ZM121.191 33.2921C120.332 33.2921 119.697 32.6531 119.697 31.8224C119.697 30.9917 120.332 30.3527 121.191 30.3527C122.049 30.3527 122.685 30.9917 122.685 31.8224C122.685 32.6531 122.049 33.2921 121.191 33.2921ZM121.191 33.5157C122.176 33.5157 122.939 32.7809 122.939 31.8224C122.939 30.8319 122.176 30.129 121.191 30.129C120.173 30.129 119.442 30.8639 119.442 31.8224C119.442 32.7809 120.173 33.5157 121.191 33.5157ZM117.884 33.4838H118.139V30.129H117.884V33.4838ZM114.228 32.1738V30.3527H115.182C115.913 30.3527 116.295 30.6722 116.295 31.2792C116.295 31.8543 115.913 32.2058 115.182 32.2058H114.228V32.1738ZM116.581 33.4838L115.754 32.3016C116.263 32.1419 116.549 31.7904 116.549 31.2473C116.549 30.5444 116.04 30.0971 115.182 30.0971H113.974V33.4518H114.228V32.3655H115.182C115.309 32.3655 115.405 32.3655 115.5 32.3336L116.295 33.4518H116.581V33.4838ZM110.35 32.3336L111.24 30.3846L112.13 32.3336H110.35ZM112.639 33.4838H112.893L111.335 30.129H111.081L109.523 33.4838H109.777L110.191 32.5253H112.13L112.639 33.4838ZM111.971 29.2983H111.621L110.954 29.8734H111.208L111.971 29.2983ZM107.647 33.4838H107.902V30.3527H109.11V30.129H106.439V30.3527H107.647V33.4838V33.4838ZM105.136 33.4838H105.39V30.129H105.136V33.4838ZM102.624 33.5157C103.451 33.5157 103.832 33.1004 103.832 32.6211C103.832 31.407 101.734 31.9821 101.734 30.9917C101.734 30.6083 102.02 30.3207 102.688 30.3207C103.006 30.3207 103.324 30.4166 103.61 30.6083L103.705 30.4166C103.451 30.2249 103.069 30.129 102.688 30.129C101.861 30.129 101.48 30.5444 101.48 31.0236C101.48 32.2697 103.578 31.6626 103.578 32.685C103.578 33.0365 103.292 33.356 102.592 33.356C102.147 33.356 101.702 33.1643 101.48 32.9406L101.384 33.1323C101.639 33.324 102.147 33.5157 102.624 33.5157ZM98.078 32.1738V30.3527H99.0318C99.763 30.3527 100.145 30.6722 100.145 31.2792C100.145 31.8543 99.763 32.2058 99.0318 32.2058H98.078V32.1738ZM100.462 33.4838L99.6358 32.3016C100.145 32.1419 100.431 31.7904 100.431 31.2473C100.431 30.5444 99.922 30.0971 99.0636 30.0971H97.8555V33.4518H98.1098V32.3655H99.0636C99.1908 32.3655 99.2861 32.3655 99.3815 32.3336L100.176 33.4518H100.462V33.4838ZM94.422 33.2601V31.8863H96.2023V31.6626H94.422V30.3527H96.4249V30.129H94.1676V33.4838H96.4884V33.2601H94.422ZM92.9595 30.129L91.5925 33.1643L90.2254 30.129H89.9711L91.4653 33.4838H91.7197L93.2139 30.129H92.9595ZM147.133 33.2921C146.275 33.2921 145.639 32.6531 145.639 31.8224C145.639 30.9917 146.275 30.3527 147.133 30.3527C147.991 30.3527 148.627 30.9917 148.627 31.8224C148.627 32.6531 147.991 33.2921 147.133 33.2921ZM147.133 33.5157C148.119 33.5157 148.882 32.7809 148.882 31.8224C148.882 30.8319 148.119 30.129 147.133 30.129C146.116 30.129 145.384 30.8639 145.384 31.8224C145.384 32.7809 146.147 33.5157 147.133 33.5157ZM143.223 33.5157C144.049 33.5157 144.431 33.1004 144.431 32.6211C144.431 31.407 142.332 31.9821 142.332 30.9917C142.332 30.6083 142.619 30.3207 143.286 30.3207C143.604 30.3207 143.922 30.4166 144.208 30.6083L144.303 30.4166C144.049 30.2249 143.668 30.129 143.286 30.129C142.46 30.129 142.078 30.5444 142.078 31.0236C142.078 32.2697 144.176 31.6626 144.176 32.685C144.176 33.0365 143.89 33.356 143.191 33.356C142.746 33.356 142.301 33.1643 142.078 32.9406L141.983 33.1323C142.237 33.324 142.714 33.5157 143.223 33.5157ZM140.457 33.4838H140.711V30.129H140.457V33.4838ZM140.329 29.8415H140.584L141.347 29.2664H140.997L140.329 29.8415ZM136.864 32.3336L137.754 30.3846L138.645 32.3336H136.864ZM139.153 33.4838H139.408L137.85 30.129H137.595L136.038 33.4838H136.292L136.705 32.5253H138.645L139.153 33.4838ZM132.954 32.1738V30.3527H133.908C134.639 30.3527 135.02 30.6722 135.02 31.2792C135.02 31.8543 134.639 32.2058 133.908 32.2058H132.954V32.1738ZM135.338 33.4838L134.512 32.3016C135.02 32.1419 135.306 31.7904 135.306 31.2473C135.306 30.5444 134.798 30.0971 133.939 30.0971H132.731V33.4518H132.986V32.3655H133.939C134.066 32.3655 134.162 32.3655 134.257 32.3336L135.052 33.4518H135.338V33.4838ZM129.107 32.3336L129.997 30.3846L130.887 32.3336H129.107ZM131.396 33.4838H131.65L130.092 30.129H129.838L128.28 33.4838H128.535L128.948 32.5253H130.887L131.396 33.4838ZM88.6994 33.4838H88.9538V30.129H88.6994V33.4838ZM86.8237 30.129V33.0684L84.5347 30.129H84.3121V33.4838H84.5665V30.5444L86.8555 33.4838H87.0462V30.129H86.8237ZM81.3873 33.5157C82.2139 33.5157 82.7225 33.0365 82.7225 32.078V30.129H82.4682V32.046C82.4682 32.8767 82.0549 33.2921 81.3555 33.2921C80.6561 33.2921 80.2428 32.9087 80.2428 32.046V30.129H79.9884V32.078C80.052 33.0365 80.5607 33.5157 81.3873 33.5157ZM76.237 33.2921C75.3786 33.2921 74.7428 32.6531 74.7428 31.8224C74.7428 30.9917 75.3786 30.3527 76.237 30.3527C77.0954 30.3527 77.7312 30.9917 77.7312 31.8224C77.7312 32.6531 77.0954 33.2921 76.237 33.2921ZM76.237 33.5157C77.2225 33.5157 77.9855 32.7809 77.9855 31.8224C77.9855 30.8319 77.2225 30.129 76.237 30.129C75.2197 30.129 74.4884 30.8639 74.4884 31.8224C74.4884 32.7809 75.2197 33.5157 76.237 33.5157ZM71.1503 32.1738V30.3527H72.104C72.8353 30.3527 73.2168 30.6722 73.2168 31.2792C73.2168 31.8543 72.8353 32.2058 72.104 32.2058H71.1503V32.1738ZM73.5029 33.4838L72.6763 32.3016C73.185 32.1419 73.4711 31.7904 73.4711 31.2473C73.4711 30.5444 72.9624 30.0971 72.104 30.0971H70.896V33.4518H71.1503V32.3655H72.104C72.2312 32.3655 72.3266 32.3655 72.422 32.3336L73.2168 33.4518H73.5029V33.4838ZM68.3844 33.4838H68.6387V30.3527H69.8468V30.129H67.1763V30.3527H68.3844V33.4838V33.4838ZM65.8728 30.129V33.0684L63.5838 30.129H63.3613V33.4838H63.6156V30.5444L65.9046 33.4838H66.0954V30.129H65.8728ZM59.9595 33.2601V31.8863H61.7399V31.6626H59.9595V30.3527H61.9624V30.129H59.7052V33.4838H62.026V33.2601H59.9595Z" fill="#070707"/>
<path fill-rule="evenodd" clip-rule="evenodd" d="M23.9707 38.5C34.9389 38.5 45.1759 29.8415 46.7655 19.234C46.9562 18.0519 47.0198 16.9017 46.9562 15.7834C51.0256 14.6971 55.2539 14.0261 59.4504 13.9303C59.5458 13.9303 59.5458 13.8344 59.4186 13.8025C45.8117 13.2593 34.5256 16.6461 23.6209 22.5249C19.0111 16.4224 11.4446 13.1315 0.222105 11.6938C-0.0640226 11.6618 -0.0640226 11.8855 0.094937 11.9174C3.21054 12.4925 5.97644 13.2274 8.42442 14.122C7.6932 15.7515 7.18453 17.4768 6.9302 19.266C5.3406 29.8415 13.0025 38.5 23.9707 38.5ZM46.0978 11.1187C38.3406 11.7577 30.488 14.5693 24.7019 17.5407C20.6961 13.7386 15.5776 11.3423 10.7452 10.0643C15.0053 4.08963 22.2221 0 29.725 0C37.7048 0 43.9042 4.56888 46.0978 11.1187ZM55.3811 11.4382C55.54 11.4382 55.5082 11.534 55.3811 11.534C48.7683 11.3423 43.4591 12.2689 37.2279 13.8664C42.251 12.205 48.9591 11.0228 55.3811 11.4382ZM56.6527 12.2689C56.8117 12.2689 56.7799 12.3647 56.6527 12.3647C50.04 12.173 44.7944 12.9079 38.5631 14.4734C43.5545 12.844 50.2308 11.8216 56.6527 12.2689ZM58.0834 13.0357C58.2423 13.0357 58.2105 13.1315 58.0834 13.1315C51.4707 12.9398 46.1296 13.5469 39.8984 15.1124C44.8897 13.483 51.6614 12.6203 58.0834 13.0357ZM16.4996 13.0357C11.1267 10.7672 7.18453 10.0004 2.86083 9.45726C2.73367 9.42531 2.73367 9.26556 2.92442 9.29751C7.24812 9.58506 12.5574 10.895 16.4996 13.0357ZM15.8319 13.8025C10.4591 11.534 6.16719 10.7033 1.8117 10.1921C1.68453 10.1602 1.68453 10.0004 1.87528 10.0324C6.19898 10.288 11.8579 11.6618 15.8319 13.8025ZM15.1325 14.6971C9.75968 12.4286 5.18164 11.4382 0.857943 10.927C0.730775 10.895 0.730775 10.7353 0.921527 10.7672C5.24523 11.0228 11.1903 12.5245 15.1325 14.6971Z" fill="#385983"/>
<path fill-rule="evenodd" clip-rule="evenodd" d="M26.9596 7.125L27.3729 8.56276H28.9943L27.6272 9.45737L28.0405 10.8951L26.7689 10.0005L25.4018 10.8951L26.0058 9.45737L24.7342 8.56276H26.3556L26.9596 7.125ZM9.82376 17.4769L10.1099 18.4993H11.2862L10.2689 19.1383L10.555 20.1607L9.63301 19.5217L8.61567 20.1607L9.06076 19.1383L8.13879 18.4993H9.31509L9.82376 17.4769ZM11.318 24.0586L11.6041 25.081H12.7804L11.7631 25.72L12.0492 26.7424L11.1272 26.1034L10.1099 26.7424L10.555 25.72L9.63301 25.081H10.8093L11.318 24.0586ZM13.6706 22.7487L13.3527 23.4516H12.5579L13.1937 23.8989L12.8758 24.6018L13.5434 24.1545L14.1793 24.6018L13.9885 23.8989L14.6561 23.4516H13.8613L13.6706 22.7487ZM32.5868 28.5636L32.7139 29.0428H33.2544L32.8093 29.3304L32.9365 29.8096L32.5232 29.5221L32.0781 29.8096L32.2689 29.3304L31.8556 29.0428H32.396L32.5868 28.5636ZM35.3209 28.0204L35.448 28.4997H35.9885L35.5434 28.7872L35.6706 29.2665L35.2573 28.9789L34.8122 29.2665L35.003 28.7872L34.5897 28.4997H35.1301L35.3209 28.0204ZM37.0376 28.6594L37.1648 29.1387H37.7053L37.2602 29.4262L37.3873 29.9055L36.9741 29.6179L36.529 29.9055L36.7197 29.4262L36.3064 29.1387H36.8469L37.0376 28.6594ZM39.9307 27.7329L40.0261 28.2121H40.5665L40.0897 28.4997L40.185 28.9789L39.8035 28.6914L39.3267 28.9789L39.581 28.4997L39.1995 28.2121H39.74L39.9307 27.7329ZM40.5665 22.0457L40.7255 22.9084H41.711L40.8209 23.4516L40.9798 24.3142L40.2804 23.7711L39.3902 24.3142L39.8353 23.4516L39.1359 22.9084H40.1215L40.5665 22.0457ZM34.6532 30.193L34.844 30.8321H35.5752L34.9394 31.2474L35.1301 31.8864L34.5579 31.4711L33.922 31.8864L34.2082 31.2474L33.6359 30.8321H34.3671L34.6532 30.193ZM30.6157 30.5126L30.87 31.3433H31.8238L30.9972 31.8545L31.2515 32.6852L30.5203 32.174L29.6937 32.6852L30.0434 31.8545L29.2804 31.3433H30.2342L30.6157 30.5126ZM34.9712 32.3657L35.1301 32.9408H35.766L35.2255 33.2922L35.3845 33.8673L34.8758 33.5159L34.3353 33.8673L34.5579 33.2922L34.0492 32.9408H34.685L34.9712 32.3657ZM15.896 26.391L16.0868 27.0619H16.8498L16.2139 27.4773L16.4047 28.1482L15.8324 27.7329L15.1966 28.1482L15.4827 27.4773L14.9105 27.0619H15.6735L15.896 26.391ZM15.0376 28.915L15.2284 29.586H15.9914L15.3556 30.0014L15.5463 30.6723L14.9741 30.2569L14.3064 30.6723L14.5926 30.0014L14.0203 29.586H14.7833L15.0376 28.915ZM18.5983 30.8001L18.8845 31.7586H19.9972L19.0752 32.3657L19.3613 33.3242L18.503 32.7171L17.581 33.3242L17.9943 32.3657L17.1359 31.7586H18.2486L18.5983 30.8001ZM22.1908 25.5922L22.3816 26.2951H23.1764L22.4769 26.7424L22.6677 27.4453L22.0319 26.998L21.3324 27.4453L21.6186 26.7424L20.9827 26.2951H21.7775L22.1908 25.5922ZM24.8613 23.6113L25.0521 24.3142H25.8469L25.1475 24.7615L25.3382 25.4644L24.7024 25.0171L24.003 25.4644L24.2891 24.7615L23.6532 24.3142H24.448L24.8613 23.6113ZM27.5319 25.3366L27.7226 26.0395H28.5174L27.818 26.4868L28.0087 27.1897L27.3729 26.7424L26.6735 27.1897L26.9596 26.4868L26.3238 26.0395H27.1186L27.5319 25.3366ZM24.003 27.2217L23.7804 27.7968H23.1446L23.6532 28.1482L23.3989 28.7233L23.9394 28.3719L24.448 28.7233L24.2891 28.1163L24.8295 27.7648H24.1937L24.003 27.2217ZM24.1937 30.0333L24.4163 30.8001H25.3064L24.5434 31.2794L24.766 32.0462L24.0665 31.5669L23.3035 32.0462L23.6215 31.2794L22.922 30.8001H23.8122L24.1937 30.0333ZM29.344 28.8831L29.4712 29.2984H29.948L29.5665 29.554L29.6937 29.9694L29.344 29.7138L28.9625 29.9694L29.1215 29.554L28.7717 29.2984H29.2486L29.344 28.8831ZM15.3873 20.3204L15.6417 21.247H16.7226L15.8324 21.8221L16.0868 22.7487L15.2602 22.1735L14.37 22.7487L14.7515 21.8221L13.9249 21.247H15.0058L15.3873 20.3204ZM10.1735 27.1897L10.3642 27.7968H11.0636L10.4596 28.1802L10.6504 28.7872L10.1099 28.4358L9.50585 28.8192L9.76018 28.2121L9.21972 27.8287H9.91914L10.1735 27.1897ZM24.6706 35.1453L24.8613 35.7524H25.5608L24.9567 36.1358L25.1475 36.7428L24.607 36.3594L24.003 36.7428L24.2573 36.1358L23.7168 35.7524H24.4163L24.6706 35.1453ZM41.5839 25.2408L41.7746 25.8478H42.4741L41.87 26.2312L42.0608 26.8383L41.5203 26.4549L40.9163 26.8383L41.1706 26.2312L40.6301 25.8478H41.3295L41.5839 25.2408ZM43.7139 22.8765L43.9047 23.4835H44.6041L44.0001 23.8669L44.1908 24.474L43.6504 24.0906L43.0463 24.474L43.3006 23.8669L42.7602 23.4835H43.4596L43.7139 22.8765ZM31.5376 20.8636L31.7284 21.4706H32.4278L31.8238 21.854L32.0145 22.4611L31.4741 22.0777L30.8382 22.4611L31.0926 21.854L30.5521 21.4706H31.2515L31.5376 20.8636Z" fill="#FDFDFD"/>
<path fill-rule="evenodd" clip-rule="evenodd" d="M0.127197 11.6936C0.222573 11.5339 0.413324 11.2144 0.763035 10.8629C0.763035 10.8949 0.794827 10.9268 0.858411 10.9268C5.2139 11.438 9.76014 12.4285 15.133 14.697C11.1908 12.5243 5.24569 11.0227 0.921995 10.7671C0.890203 10.7671 0.858411 10.7671 0.858411 10.7671C1.3035 10.2878 1.93934 9.77663 2.76593 9.39322C2.76593 9.42517 2.79772 9.48907 2.8613 9.48907C7.21679 10.0003 11.1272 10.799 16.5 13.0675C12.5578 10.8949 7.24858 9.58492 2.92489 9.29737C4.89598 8.56252 10.396 9.93638 10.7457 10.0322C15.5781 11.3102 20.6966 13.7385 24.7341 17.5405C29.4393 15.1123 35.5752 12.8119 41.87 11.6936L46.0347 11.1505H46.0983C46.6388 11.1185 53.5694 10.6712 55.3497 11.47C48.9278 11.0546 42.2197 12.2687 37.2284 13.8663C43.4596 12.3007 48.7688 11.3741 55.3815 11.5339C55.4451 11.5339 55.4769 11.5339 55.4769 11.5019C57.0029 12.2368 58.8786 13.4828 59.3873 13.8343C45.7804 13.3231 34.526 16.6779 23.6214 22.5567C19.0116 16.4223 11.4451 13.1314 0.222573 11.6936C0.190781 11.6936 0.158989 11.6936 0.127197 11.6936ZM56.6532 12.2687C50.2312 11.8214 43.5549 12.8438 38.5636 14.4733C44.7948 12.9077 50.0405 12.1729 56.6532 12.3646C56.7804 12.3326 56.7804 12.2687 56.6532 12.2687ZM58.0838 13.0355C51.6619 12.6202 44.922 13.4828 39.9307 15.1123C46.1619 13.5467 51.5029 12.9716 58.1156 13.1314C58.211 13.1314 58.211 13.0675 58.0838 13.0355ZM15.8324 13.8024C11.8902 11.6617 6.19945 10.2878 1.87575 10.0322C1.685 10.0003 1.685 10.192 1.81217 10.192C6.13587 10.7032 10.4278 11.5339 15.8324 13.8024Z" fill="#FDFDFD"/>
<path fill-rule="evenodd" clip-rule="evenodd" d="M26.9595 7.125L27.3728 8.56276H29.026L27.6272 9.45737L28.0404 10.8951L26.7688 10.0005L25.3699 10.8632L25.974 9.42542L24.7023 8.53081H26.3555L26.9595 7.125ZM9.72831 17.4769L10.0144 18.4993H11.1907L10.1734 19.1383L10.4595 20.1607L9.53755 19.5217L8.52021 20.1607L8.9653 19.1383L8.04333 18.4993H9.21964L9.72831 17.4769ZM11.2225 24.0586L11.5087 25.081H12.685L11.6676 25.72L11.9537 26.7424L11.0318 26.1034L10.0144 26.7424L10.4595 25.72L9.53755 25.081H10.7139L11.2225 24.0586ZM13.5751 22.7487L13.289 23.4516H12.4942L13.13 23.8989L12.8121 24.6018L13.5115 24.1545L14.1474 24.6018L13.9566 23.8989L14.6561 23.4516H13.8613L13.5751 22.7487ZM32.6185 28.5636L32.7456 29.0428H33.2861L32.841 29.3304L32.9682 29.8096L32.5549 29.5221L32.1098 29.8096L32.3006 29.3304L31.8873 29.0428H32.4277L32.6185 28.5636ZM35.3208 28.0204L35.448 28.4997H35.9884L35.5433 28.7872L35.6705 29.2665L35.2572 28.9789L34.8121 29.2665L35.0029 28.7872L34.5896 28.4997H35.13L35.3208 28.0204ZM37.0693 28.6594L37.1965 29.1387H37.737L37.2919 29.4262L37.4191 29.9055L37.0058 29.6179L36.5607 29.9055L36.7514 29.4262L36.3381 29.1387H36.8786L37.0693 28.6594ZM39.9624 27.7009L40.0578 28.1802H40.5982L40.1214 28.4677L40.2167 28.947L39.8352 28.6594L39.3584 28.947L39.6127 28.4677L39.2312 28.1802H39.7717L39.9624 27.7009ZM40.63 22.0457L40.789 22.9084H41.7745L40.8844 23.4516L41.0115 24.2823L40.3121 23.7391L39.4219 24.2823L39.867 23.4196L39.1676 22.8765H40.1532L40.63 22.0457ZM34.685 30.193L34.8757 30.8321H35.6069L34.9711 31.2474L35.1618 31.8864L34.5896 31.4711L33.9537 31.8864L34.2399 31.2474L33.6676 30.8321H34.3988L34.685 30.193ZM30.6156 30.5126L30.8699 31.3433H31.8555L31.0289 31.8545L31.2832 32.6852L30.5202 32.174L29.6936 32.6852L30.0433 31.8545L29.2803 31.3433H30.2659L30.6156 30.5126ZM35.0029 32.3657L35.1618 32.9408H35.7977L35.2572 33.2922L35.4162 33.8354L34.9075 33.4839L34.367 33.8354L34.5896 33.2922L34.0809 32.9408H34.7167L35.0029 32.3657ZM15.8324 26.391L16.0231 27.0619H16.7861L16.1503 27.4773L16.341 28.1482L15.737 27.7329L15.1011 28.1482L15.3873 27.4773L14.7832 27.0619H15.5462L15.8324 26.391ZM14.974 28.915L15.1647 29.586H15.9277L15.2919 30.0014L15.4826 30.6723L14.8786 30.2569L14.2428 30.6723L14.5289 30.0014L13.9248 29.586H14.6878L14.974 28.915ZM18.5347 30.7682L18.8208 31.7267H19.9335L19.0115 32.3337L19.2977 33.2922L18.4393 32.6852L17.5173 33.2922L17.9306 32.3337L17.0722 31.7267H18.185L18.5347 30.7682ZM22.1589 25.5922L22.3497 26.2951H23.1763L22.4769 26.7424L22.6676 27.4453L22.0318 26.998L21.3324 27.4453L21.6185 26.7424L20.9826 26.2951H21.8092L22.1589 25.5922ZM24.8295 23.6113L25.0202 24.3142H25.8468L25.1474 24.7615L25.3381 25.4644L24.7023 25.0171L24.0029 25.4644L24.289 24.7615L23.6532 24.3142H24.4798L24.8295 23.6113ZM27.5318 25.3366L27.7225 26.0395H28.5491L27.8497 26.4868L28.0404 27.1897L27.4046 26.7424L26.7052 27.1897L26.9913 26.4868L26.3555 26.0395H27.1821L27.5318 25.3366ZM24.0029 27.1897L23.7485 27.7648H23.0809L23.5896 28.1163L23.3352 28.6914L23.8757 28.3399L24.3844 28.6914L24.2572 28.1163L24.7977 27.7648H24.1618L24.0029 27.1897ZM24.1618 30.0014L24.3844 30.7682H25.2745L24.5115 31.2474L24.7341 32.0142L24.0347 31.535L23.2717 32.0142L23.5896 31.2474L22.8902 30.7682H23.8439L24.1618 30.0014ZM29.3439 28.8511L29.4711 29.2665H29.948L29.5347 29.5221L29.6618 29.9374L29.3121 29.6818L28.8988 29.9374L29.0578 29.5221L28.7081 29.2665H29.185L29.3439 28.8511ZM15.3237 20.3204L15.578 21.247H16.6589L15.737 21.8221L15.9913 22.7487L15.1647 22.1735L14.3063 22.7167L14.6878 21.7901L13.8613 21.215H14.9422L15.3237 20.3204ZM10.078 27.1897L10.2688 27.7968H10.9682L10.3641 28.1802L10.5549 28.7872L10.0144 28.4358L9.41039 28.8192L9.66472 28.2121L9.12426 27.7968H9.82368L10.078 27.1897ZM24.6387 35.1453L24.8295 35.7524H25.5289L24.9248 36.1358L25.1156 36.7428L24.5751 36.3594L23.9711 36.7428L24.2254 36.1358L23.685 35.7524H24.3844L24.6387 35.1453ZM41.6474 25.2408L41.8381 25.8478H42.5376L41.9335 26.2312L42.1243 26.8383L41.5838 26.4549L40.9797 26.8383L41.2341 26.2312L40.6936 25.8478H41.393L41.6474 25.2408ZM43.7774 22.8765L43.9682 23.4835H44.6676L44.0636 23.8669L44.2543 24.474L43.7139 24.0906L43.1098 24.474L43.3641 23.8669L42.8237 23.4835H43.5231L43.7774 22.8765ZM31.5376 20.8636L31.7283 21.4706H32.4277L31.8237 21.854L32.0144 22.4611L31.474 22.0777L30.8699 22.4611L31.1243 21.854L30.5838 21.4706H31.2832L31.5376 20.8636Z" fill="#FDFDFD"/>
</g>
<defs>
<clipPath id="clip0">
<rect width="154" height="38.5" fill="white"/>
</clipPath>
</defs>
</svg>