<svg width="36" height="36" viewBox="0 0 36 36" fill="none" xmlns="http://www.w3.org/2000/svg">
<path d="M33.8094 9.63C33.6312 8.91811 33.2683 8.26586 32.7574 7.73911C32.2464 7.21236 31.6055 6.82978 30.8994 6.63C28.3194 6 17.9994 6 17.9994 6C17.9994 6 7.67939 6 5.09939 6.69C4.39326 6.88978 3.75236 7.27236 3.24141 7.79911C2.73047 8.32586 2.36758 8.97811 2.18939 9.69C1.71721 12.3083 1.48625 14.9645 1.49939 17.625C1.48256 20.3056 1.71354 22.982 2.18939 25.62C2.38583 26.3098 2.75685 26.9372 3.26661 27.4417C3.77636 27.9462 4.40762 28.3107 5.09939 28.5C7.67939 29.19 17.9994 29.19 17.9994 29.19C17.9994 29.19 28.3194 29.19 30.8994 28.5C31.6055 28.3002 32.2464 27.9176 32.7574 27.3909C33.2683 26.8641 33.6312 26.2119 33.8094 25.5C34.2779 22.9014 34.5089 20.2655 34.4994 17.625C34.5162 14.9444 34.2852 12.268 33.8094 9.63Z" stroke="#FFFAF1" stroke-width="2" stroke-linecap="round" stroke-linejoin="round"/>
<path d="M14.625 22.53L23.25 17.625L14.625 12.72V22.53Z" stroke="#FFFAF1" stroke-width="2" stroke-linecap="round" stroke-linejoin="round"/>
</svg>
